<mxfile host="65bd71144e">
    <diagram id="IXwkxLeRtxxvtkipXYIu" name="Page-1">
        <mxGraphModel dx="1137" dy="832" grid="1" gridSize="10" guides="1" tooltips="1" connect="1" arrows="1" fold="1" page="1" pageScale="1" pageWidth="850" pageHeight="1100" background="#FFFFFF" math="0" shadow="0">
            <root>
                <mxCell id="0"/>
                <mxCell id="1" parent="0"/>
                <mxCell id="8" value="Publish" style="edgeStyle=none;html=1;exitX=0;exitY=1;exitDx=0;exitDy=0;entryX=0.5;entryY=0;entryDx=0;entryDy=0;" parent="1" source="2" target="5" edge="1">
                    <mxGeometry relative="1" as="geometry">
                        <Array as="points">
                            <mxPoint x="375" y="430"/>
                        </Array>
                    </mxGeometry>
                </mxCell>
                <mxCell id="9" value="Publish" style="edgeStyle=none;html=1;exitX=0.5;exitY=1;exitDx=0;exitDy=0;entryX=0.5;entryY=0;entryDx=0;entryDy=0;" parent="1" source="2" target="6" edge="1">
                    <mxGeometry relative="1" as="geometry">
                        <Array as="points">
                            <mxPoint x="505" y="480"/>
                        </Array>
                    </mxGeometry>
                </mxCell>
                <mxCell id="10" value="Publish" style="edgeStyle=none;html=1;exitX=1;exitY=1;exitDx=0;exitDy=0;entryX=0.5;entryY=0;entryDx=0;entryDy=0;" parent="1" source="2" target="7" edge="1">
                    <mxGeometry relative="1" as="geometry">
                        <Array as="points">
                            <mxPoint x="635" y="430"/>
                        </Array>
                    </mxGeometry>
                </mxCell>
                <mxCell id="12" value="Network Packet Send" style="edgeStyle=none;html=1;exitX=1;exitY=0.5;exitDx=0;exitDy=0;entryX=0;entryY=0.5;entryDx=0;entryDy=0;" parent="1" source="2" target="11" edge="1">
                    <mxGeometry relative="1" as="geometry"/>
                </mxCell>
                <mxCell id="2" value="ROI Module Virtualization (Node)&lt;br&gt;Exmaple: generalGPIO on host octet 15&lt;br&gt;with alias/namespace front/gpio" style="ellipse;whiteSpace=wrap;html=1;aspect=fixed;" parent="1" vertex="1">
                    <mxGeometry x="385" y="200" width="240" height="240" as="geometry"/>
                </mxCell>
                <mxCell id="4" value="Subscribe" style="edgeStyle=none;html=1;exitX=1;exitY=0.5;exitDx=0;exitDy=0;entryX=0;entryY=0.5;entryDx=0;entryDy=0;" parent="1" source="3" target="2" edge="1">
                    <mxGeometry relative="1" as="geometry"/>
                </mxCell>
                <mxCell id="3" value="Octet Response&lt;br&gt;(Topic From Listener)&lt;br&gt;Name: octet15response" style="rounded=0;whiteSpace=wrap;html=1;" parent="1" vertex="1">
                    <mxGeometry x="35" y="290" width="170" height="60" as="geometry"/>
                </mxCell>
                <mxCell id="25" style="edgeStyle=none;html=1;exitX=0.5;exitY=1;exitDx=0;exitDy=0;entryX=0.5;entryY=0;entryDx=0;entryDy=0;" edge="1" parent="1" source="5" target="24">
                    <mxGeometry relative="1" as="geometry">
                        <Array as="points">
                            <mxPoint x="375" y="920"/>
                            <mxPoint x="495" y="920"/>
                        </Array>
                    </mxGeometry>
                </mxCell>
                <mxCell id="5" value="GPIO pin modes&lt;br&gt;Name: front/gpio/modes" style="rounded=0;whiteSpace=wrap;html=1;" parent="1" vertex="1">
                    <mxGeometry x="315" y="560" width="120" height="60" as="geometry"/>
                </mxCell>
                <mxCell id="26" style="edgeStyle=none;html=1;exitX=0.5;exitY=1;exitDx=0;exitDy=0;entryX=0.5;entryY=0;entryDx=0;entryDy=0;" edge="1" parent="1" source="6" target="24">
                    <mxGeometry relative="1" as="geometry"/>
                </mxCell>
                <mxCell id="6" value="GPIO pin states&lt;br&gt;Name: front/gpio/states" style="rounded=0;whiteSpace=wrap;html=1;" parent="1" vertex="1">
                    <mxGeometry x="445" y="560" width="120" height="60" as="geometry"/>
                </mxCell>
                <mxCell id="27" style="edgeStyle=none;html=1;exitX=0.5;exitY=1;exitDx=0;exitDy=0;entryX=0.5;entryY=0;entryDx=0;entryDy=0;" edge="1" parent="1" source="7" target="24">
                    <mxGeometry relative="1" as="geometry">
                        <Array as="points">
                            <mxPoint x="635" y="920"/>
                            <mxPoint x="515" y="920"/>
                        </Array>
                    </mxGeometry>
                </mxCell>
                <mxCell id="7" value="Module Health&lt;br&gt;Name:&lt;br&gt;front/gpio/health" style="rounded=0;whiteSpace=wrap;html=1;" parent="1" vertex="1">
                    <mxGeometry x="575" y="560" width="120" height="60" as="geometry"/>
                </mxCell>
                <mxCell id="11" value="OUT" style="triangle;whiteSpace=wrap;html=1;" parent="1" vertex="1">
                    <mxGeometry x="785" y="280" width="60" height="80" as="geometry"/>
                </mxCell>
                <mxCell id="13" value="Multi-Threaded &lt;br&gt;Background READ Polling" style="edgeStyle=none;html=1;exitX=1;exitY=0;exitDx=0;exitDy=0;entryX=0;entryY=0;entryDx=0;entryDy=0;" parent="1" source="2" target="2" edge="1">
                    <mxGeometry relative="1" as="geometry">
                        <Array as="points">
                            <mxPoint x="590" y="150"/>
                            <mxPoint x="420" y="150"/>
                        </Array>
                    </mxGeometry>
                </mxCell>
                <mxCell id="16" style="edgeStyle=none;html=1;exitX=0.5;exitY=0;exitDx=0;exitDy=0;entryX=0;entryY=1;entryDx=0;entryDy=0;" parent="1" source="14" target="2" edge="1">
                    <mxGeometry relative="1" as="geometry">
                        <Array as="points">
                            <mxPoint x="230" y="410"/>
                            <mxPoint x="405" y="410"/>
                        </Array>
                    </mxGeometry>
                </mxCell>
                <mxCell id="14" value="Set Pin Mode&lt;br&gt;front/gpio/setMode" style="rhombus;whiteSpace=wrap;html=1;" parent="1" vertex="1">
                    <mxGeometry x="155" y="530" width="150" height="120" as="geometry"/>
                </mxCell>
                <mxCell id="17" value="Service" style="edgeStyle=none;html=1;exitX=0.5;exitY=0;exitDx=0;exitDy=0;entryX=0;entryY=1;entryDx=0;entryDy=0;" parent="1" source="15" target="2" edge="1">
                    <mxGeometry relative="1" as="geometry">
                        <Array as="points">
                            <mxPoint x="80" y="410"/>
                            <mxPoint x="405" y="410"/>
                        </Array>
                    </mxGeometry>
                </mxCell>
                <mxCell id="15" value="Set Pin Output&lt;br&gt;front/gpio/setState" style="rhombus;whiteSpace=wrap;html=1;" parent="1" vertex="1">
                    <mxGeometry x="5" y="530" width="150" height="120" as="geometry"/>
                </mxCell>
                <mxCell id="18" value="Every ~50ms send out read input packets. We need to publish these values in a topic, there must be some refreshing of the topic. Like cache invalidation." style="shape=note;whiteSpace=wrap;html=1;backgroundOutline=1;darkOpacity=0.05;" vertex="1" parent="1">
                    <mxGeometry x="415" width="180" height="130" as="geometry"/>
                </mxCell>
                <mxCell id="19" value="&amp;nbsp;pinNumber,&lt;br&gt;&amp;nbsp;State: In, In_pullup,&lt;br&gt;Out" style="shape=note;whiteSpace=wrap;html=1;backgroundOutline=1;darkOpacity=0.05;" vertex="1" parent="1">
                    <mxGeometry x="190" y="650" width="80" height="100" as="geometry"/>
                </mxCell>
                <mxCell id="20" value="pinNumber,&lt;br&gt;&amp;nbsp;outputState" style="shape=note;whiteSpace=wrap;html=1;backgroundOutline=1;darkOpacity=0.05;" vertex="1" parent="1">
                    <mxGeometry x="40" y="650" width="80" height="100" as="geometry"/>
                </mxCell>
                <mxCell id="21" value="&amp;nbsp;pin0: In, In_pullup, Out&lt;br&gt;pin2: In, In_pullup,&amp;nbsp;Out&lt;br&gt;&amp;nbsp;pin3: In, In_pullup,&amp;nbsp;Out&lt;br&gt;&amp;nbsp;pin4: In, In_pullup,&amp;nbsp;Out&lt;br&gt;&amp;nbsp;pin5: In, In_pullup,&amp;nbsp;Out&lt;br&gt;...&lt;br&gt;&amp;nbsp;pin17: In, In_pullup,&amp;nbsp;Out" style="shape=note;whiteSpace=wrap;html=1;backgroundOutline=1;darkOpacity=0.05;" vertex="1" parent="1">
                    <mxGeometry x="315" y="630" width="120" height="270" as="geometry"/>
                </mxCell>
                <mxCell id="22" value="&amp;nbsp;pin0,&lt;br&gt;&amp;nbsp;pin1&lt;br&gt;..&lt;br&gt;&amp;nbsp;pin7,&lt;br&gt;&amp;nbsp;pin10,&lt;br&gt;...&lt;br&gt;&amp;nbsp;pin 17&lt;br&gt;&lt;br&gt;pins 0-7 are digital in&lt;br&gt;pins 10-17 are analog ins" style="shape=note;whiteSpace=wrap;html=1;backgroundOutline=1;darkOpacity=0.05;" vertex="1" parent="1">
                    <mxGeometry x="445" y="630" width="120" height="270" as="geometry"/>
                </mxCell>
                <mxCell id="23" value="bool operating,&lt;br&gt;str status message (error message if not operable)" style="shape=note;whiteSpace=wrap;html=1;backgroundOutline=1;darkOpacity=0.05;" vertex="1" parent="1">
                    <mxGeometry x="575" y="630" width="120" height="270" as="geometry"/>
                </mxCell>
                <mxCell id="28" style="edgeStyle=none;html=1;exitX=0;exitY=0;exitDx=0;exitDy=0;entryX=0.5;entryY=1;entryDx=0;entryDy=0;entryPerimeter=0;" edge="1" parent="1" source="24" target="19">
                    <mxGeometry relative="1" as="geometry">
                        <Array as="points">
                            <mxPoint x="230" y="975"/>
                        </Array>
                    </mxGeometry>
                </mxCell>
                <mxCell id="29" style="edgeStyle=none;html=1;exitX=0;exitY=0;exitDx=0;exitDy=0;entryX=0.5;entryY=1;entryDx=0;entryDy=0;entryPerimeter=0;" edge="1" parent="1" source="24" target="20">
                    <mxGeometry relative="1" as="geometry">
                        <Array as="points">
                            <mxPoint x="80" y="975"/>
                        </Array>
                    </mxGeometry>
                </mxCell>
                <mxCell id="24" value="Physical Robot Controller Node" style="ellipse;whiteSpace=wrap;html=1;aspect=fixed;" vertex="1" parent="1">
                    <mxGeometry x="385" y="940" width="240" height="240" as="geometry"/>
                </mxCell>
            </root>
        </mxGraphModel>
    </diagram>
</mxfile>